<?xml version="1.0" standalone="no"?>
<!DOCTYPE svg PUBLIC "-//W3C//DTD SVG 20010904//EN"
 "http://www.w3.org/TR/2001/REC-SVG-20010904/DTD/svg10.dtd">
<svg version="1.0" xmlns="http://www.w3.org/2000/svg"
 width="1200.000000pt" height="1200.000000pt" viewBox="0 0 1200.000000 1200.000000"
 preserveAspectRatio="xMidYMid meet">

<g transform="translate(0.000000,1200.000000) scale(0.100000,-0.100000)"
fill="#000000" stroke="none">
<path d="M0 6000 l0 -6000 6000 0 6000 0 0 6000 0 6000 -6000 0 -6000 0 0
-6000z m6473 2044 c86 -88 157 -163 157 -167 0 -4 -144 -7 -321 -7 -202 0
-327 -4 -340 -10 -19 -10 -19 -31 -19 -865 0 -472 -4 -855 -9 -855 -4 0 -46
39 -92 88 -135 142 -669 692 -863 890 l-179 183 44 44 c24 24 300 291 614 595
l570 551 140 -143 c77 -79 211 -216 298 -304z m1287 -710 l0 -425 -241 228
c-133 125 -248 232 -255 236 -27 15 -51 -4 -170 -131 -209 -224 -925 -985
-985 -1047 l-59 -60 0 813 0 812 855 0 855 0 0 -426z m-2868 198 c-153 -149
-213 -213 -212 -229 0 -20 368 -407 1083 -1139 l109 -112 -144 -6 c-78 -3
-366 -13 -638 -21 -272 -8 -577 -18 -677 -21 l-183 -7 0 74 c-1 41 -11 425
-24 854 -13 429 -23 781 -22 783 2 1 158 7 347 12 189 6 371 12 404 13 33 2
85 4 115 5 l55 2 -213 -208z m2723 -631 c138 -129 391 -367 562 -529 l313
-294 -43 -49 c-23 -26 -157 -169 -297 -317 l-255 -269 -6 36 c-4 20 -9 162
-13 316 -6 251 -9 282 -25 298 -17 17 -34 18 -337 8 -694 -23 -1376 -43 -1379
-39 -1 1 248 269 554 594 l556 591 60 -55 c33 -31 173 -161 310 -291z m-3495
-661 c9 -272 12 -316 27 -332 16 -18 29 -19 168 -13 144 6 827 27 1313 41 127
4 232 4 232 0 0 -4 -109 -123 -242 -264 -714 -758 -861 -912 -870 -912 -6 0
-54 42 -107 93 -53 52 -289 275 -526 497 -236 222 -470 441 -518 487 l-88 83
18 24 c26 34 577 615 580 612 2 -1 7 -144 13 -316z m3670 -1090 c13 -467 22
-852 19 -854 -2 -2 -175 -9 -384 -15 -209 -6 -414 -13 -455 -15 l-75 -4 213
206 c137 134 212 214 212 227 0 13 -214 240 -595 634 -328 338 -594 615 -592
617 2 2 156 9 343 15 186 6 506 16 709 23 204 7 417 14 476 15 l105 1 24 -850z
m-1840 -100 l0 -810 -855 0 -855 0 0 422 0 422 32 -30 c18 -16 114 -105 213
-199 249 -234 241 -227 269 -227 28 0 34 6 481 482 390 416 707 750 711 750 2
0 4 -364 4 -810z m677 226 l561 -580 -206 -200 c-114 -111 -353 -343 -532
-516 -179 -172 -362 -350 -407 -393 l-81 -80 -173 179 c-96 98 -232 239 -303
312 l-130 132 328 0 c206 0 334 4 347 10 19 10 19 31 19 866 0 471 4 854 8
852 4 -1 260 -264 569 -582z"/>
</g>
</svg>
