<?xml version="1.0" standalone="no"?>
<!DOCTYPE svg PUBLIC "-//W3C//DTD SVG 20010904//EN"
 "http://www.w3.org/TR/2001/REC-SVG-20010904/DTD/svg10.dtd">
<svg version="1.0" xmlns="http://www.w3.org/2000/svg"
 width="1200.000000pt" height="1200.000000pt" viewBox="0 0 1200.000000 1200.000000"
 preserveAspectRatio="xMidYMid meet">

<g transform="translate(0.000000,1200.000000) scale(0.100000,-0.100000)"
fill="#000000" stroke="none">
<path d="M0 6000 l0 -6000 6000 0 6000 0 0 6000 0 6000 -6000 0 -6000 0 0
-6000z m6195 2425 l167 -175 -185 0 c-142 0 -187 -3 -196 -13 -7 -10 -12 -162
-13 -502 l-3 -488 -320 332 c-176 183 -320 337 -320 343 0 11 684 677 696 678
4 0 82 -79 174 -175z m815 -482 l0 -247 -57 54 c-32 30 -94 90 -139 133 -57
55 -87 78 -101 75 -12 -1 -145 -136 -298 -298 -152 -162 -301 -320 -331 -350
l-54 -55 0 468 0 467 490 0 490 0 0 -247z m-1647 109 c-68 -65 -123 -123 -123
-130 0 -7 134 -151 298 -319 163 -168 316 -327 339 -353 l43 -48 -133 -6
c-209 -10 -799 -27 -802 -24 -4 4 -25 773 -25 890 l0 98 178 3 c97 1 215 3
262 4 l85 2 -122 -117z m1740 -527 l328 -308 -34 -36 c-18 -20 -96 -103 -173
-185 l-139 -148 -5 185 c-3 102 -8 189 -13 193 -7 7 -922 -13 -964 -22 -13 -2
-23 -1 -23 4 0 4 104 118 231 252 128 135 270 287 317 338 l86 92 31 -28 c16
-16 178 -167 358 -337z m-2183 -221 c0 -117 4 -165 13 -178 13 -18 31 -18 497
-3 266 9 486 14 488 12 5 -5 -628 -675 -637 -675 -12 0 -712 662 -709 670 2 4
77 86 168 183 110 118 167 172 172 164 4 -7 8 -84 8 -173z m2107 -529 c6 -214
12 -433 12 -486 l1 -97 -167 -6 c-93 -3 -210 -8 -262 -10 l-94 -5 121 122 c67
67 122 126 122 131 0 6 -67 77 -148 160 -277 282 -532 548 -532 557 0 5 62 10
138 10 75 1 227 5 337 9 110 3 259 6 330 6 l130 -1 12 -390z m-1057 -150 l0
-465 -490 0 -490 0 0 242 0 242 32 -30 c18 -16 81 -75 140 -131 60 -57 114
-103 121 -103 12 0 52 41 480 498 110 116 201 212 203 212 2 0 4 -209 4 -465z
m513 1 l199 -205 -194 -188 c-106 -103 -264 -257 -351 -342 l-158 -154 -167
173 c-92 95 -168 177 -170 181 -2 5 83 10 190 11 l193 3 3 495 3 495 127 -132
c70 -72 216 -224 325 -337z m-2681 -1496 c47 -13 51 -21 38 -68 l-10 -39 -68
1 c-109 1 -150 -44 -160 -176 l-5 -68 92 0 91 0 0 -55 0 -55 -90 0 -90 0 0
-320 0 -320 -70 0 -70 0 0 320 0 320 -51 0 -50 0 3 53 3 52 48 3 c28 2 47 8
47 15 2 62 24 166 44 206 55 108 181 163 298 131z m238 -556 l0 -544 -70 0
-70 0 0 545 0 544 63 3 c34 2 65 2 70 0 4 -2 7 -248 7 -548z m4510 1 l0 -545
-60 0 -60 0 0 55 c0 30 -3 55 -6 55 -4 0 -25 -19 -48 -42 -60 -60 -115 -83
-206 -83 -62 0 -85 5 -132 28 -160 78 -231 282 -172 491 59 208 279 315 454
220 29 -16 58 -37 64 -46 6 -10 14 -18 18 -18 5 0 8 97 8 215 l0 215 70 0 70
0 0 -545z m-2127 491 c79 -19 83 -24 62 -86 -14 -41 -20 -50 -34 -44 -96 40
-263 43 -364 4 -67 -25 -153 -102 -186 -168 -92 -180 -52 -441 86 -556 17 -14
58 -38 90 -53 74 -35 216 -44 309 -20 32 8 65 17 73 19 9 2 18 -13 27 -46 7
-28 11 -53 8 -57 -2 -4 -37 -15 -76 -24 -355 -80 -630 64 -694 363 -42 202 10
407 135 533 61 61 175 123 251 138 71 14 249 12 313 -3z m-1757 -291 c59 -17
125 -70 159 -128 44 -76 70 -238 43 -265 -9 -9 -82 -12 -265 -12 l-253 0 0
-32 c0 -39 33 -114 63 -146 49 -53 94 -67 207 -66 71 0 119 6 147 17 l43 16
10 -41 c6 -22 9 -46 6 -53 -12 -33 -208 -64 -300 -48 -199 34 -305 160 -307
363 -1 172 63 300 182 365 87 47 175 57 265 30z m2382 -20 c61 -33 105 -93
120 -163 6 -26 13 -163 16 -304 l6 -258 -59 0 -58 0 -7 40 c-3 22 -8 40 -11
40 -3 0 -25 -16 -51 -35 -122 -93 -292 -78 -369 33 -27 40 -30 51 -30 121 0
68 3 83 28 120 54 82 157 126 320 139 103 8 106 11 87 81 -25 94 -102 132
-223 110 -34 -6 -74 -17 -90 -26 -38 -19 -51 -13 -64 31 -10 33 -9 38 10 50
20 12 87 36 142 50 11 3 56 4 100 2 66 -2 89 -7 133 -31z m730 -32 l3 -63 -44
0 c-68 0 -124 -35 -161 -100 l-31 -55 -3 -237 -4 -238 -69 0 -69 0 0 375 0
376 58 -3 57 -3 5 -74 5 -74 23 41 c42 75 118 123 187 119 l40 -2 3 -62z
m-2672 49 c9 -6 166 -241 179 -267 5 -11 3 -14 110 148 l80 122 68 3 c45 2 67
-1 67 -8 0 -7 -51 -85 -113 -173 -62 -89 -117 -167 -120 -174 -5 -7 44 -88
118 -197 69 -101 125 -187 125 -190 0 -3 -33 -6 -74 -6 l-74 0 -80 123 c-43
67 -85 133 -92 146 -15 30 -16 30 -119 -136 l-82 -131 -71 -4 c-38 -2 -72 0
-74 3 -2 3 25 46 59 95 34 49 93 132 130 185 l67 97 -124 178 c-68 99 -122
182 -119 187 5 9 125 9 139 -1z"/>
<path d="M8130 4665 c-78 -35 -124 -105 -139 -207 -21 -152 29 -274 131 -318
99 -42 204 -6 258 90 23 42 25 55 25 175 0 151 -13 190 -82 238 -50 36 -139
46 -193 22z"/>
<path d="M4492 4679 c-46 -14 -106 -77 -126 -134 -27 -80 -38 -75 179 -75
l195 0 0 38 c0 43 -28 109 -58 135 -45 40 -123 55 -190 36z"/>
<path d="M6915 4393 c-75 -17 -99 -27 -130 -54 -46 -40 -61 -91 -43 -143 19
-56 54 -79 121 -78 68 0 120 24 155 70 24 31 27 46 30 124 l4 88 -59 -1 c-32
-1 -67 -3 -78 -6z"/>
</g>
</svg>
