<?xml version="1.0" standalone="no"?>
<!DOCTYPE svg PUBLIC "-//W3C//DTD SVG 20010904//EN"
 "http://www.w3.org/TR/2001/REC-SVG-20010904/DTD/svg10.dtd">
<svg version="1.0" xmlns="http://www.w3.org/2000/svg"
 width="1200.000000pt" height="1200.000000pt" viewBox="0 0 1200.000000 1200.000000"
 preserveAspectRatio="xMidYMid meet">

<g transform="translate(0.000000,1200.000000) scale(0.100000,-0.100000)"
fill="#000000" stroke="none">
<path d="M5460 7935 c-316 -306 -592 -574 -613 -594 l-39 -38 219 -225 c120
-124 373 -385 563 -581 190 -197 348 -357 352 -357 5 0 8 385 8 855 0 834 0
855 19 865 13 6 139 10 341 10 l322 0 -31 38 c-17 20 -151 160 -298 310 l-268
274 -575 -557z"/>
<path d="M6050 6948 l0 -813 54 55 c67 70 820 869 984 1046 123 132 149 153
176 137 7 -4 122 -111 255 -236 l241 -228 0 426 0 425 -855 0 -855 0 0 -812z"/>
<path d="M4740 7729 c-140 -5 -324 -11 -408 -15 l-153 -6 6 -92 c3 -50 15
-433 26 -851 12 -418 23 -761 24 -763 4 -4 1324 36 1502 46 l131 7 -271 280
c-149 154 -417 430 -594 613 -226 232 -323 339 -323 355 -1 16 58 79 212 229
l213 208 -55 -2 c-30 0 -170 -5 -310 -9z"/>
<path d="M7229 7231 c-8 -10 -185 -201 -395 -423 -792 -839 -710 -748 -672
-748 33 0 679 20 1332 41 323 10 340 10 357 -8 17 -16 19 -45 25 -283 3 -146
9 -288 13 -316 l6 -50 298 315 298 316 -68 65 c-37 36 -219 207 -403 380 -184
173 -405 381 -490 461 -312 293 -286 271 -301 250z"/>
<path d="M3808 6244 c-256 -271 -296 -317 -286 -332 6 -9 50 -53 98 -97 90
-85 370 -348 838 -788 156 -147 287 -267 292 -267 5 0 217 222 472 493 254
270 502 533 550 583 49 49 88 94 88 99 0 4 -102 5 -227 1 -484 -14 -1165 -36
-1314 -41 -144 -6 -156 -5 -172 13 -16 17 -19 58 -28 333 -5 172 -11 314 -12
315 -1 1 -136 -139 -299 -312z"/>
<path d="M7195 5984 c-203 -7 -525 -17 -714 -23 -189 -6 -346 -12 -348 -14 -2
-2 264 -280 592 -618 381 -393 595 -621 595 -634 0 -13 -73 -91 -207 -221
-115 -111 -206 -204 -203 -206 7 -5 893 22 899 28 6 5 -38 1649 -45 1682 -5
26 2 26 -569 6z"/>
<path d="M5718 5623 c-123 -131 -336 -357 -473 -503 -461 -491 -472 -502 -497
-495 -29 9 -34 14 -258 225 -102 96 -200 188 -218 204 l-32 30 0 -422 0 -422
855 0 855 0 0 810 c0 446 -2 810 -4 810 -2 0 -105 -107 -228 -237z"/>
<path d="M6050 5006 c0 -700 -2 -856 -13 -865 -9 -7 -121 -12 -344 -13 l-330
-3 296 -305 c162 -168 299 -305 303 -305 8 0 613 582 1024 986 l201 197 -561
580 c-309 319 -564 581 -568 581 -5 1 -8 -383 -8 -853z"/>
</g>
</svg>
