<?xml version="1.0" standalone="no"?>
<!DOCTYPE svg PUBLIC "-//W3C//DTD SVG 20010904//EN"
 "http://www.w3.org/TR/2001/REC-SVG-20010904/DTD/svg10.dtd">
<svg version="1.0" xmlns="http://www.w3.org/2000/svg"
 width="1200.000000pt" height="1200.000000pt" viewBox="0 0 1200.000000 1200.000000"
 preserveAspectRatio="xMidYMid meet">

<g transform="translate(0.000000,1200.000000) scale(0.100000,-0.100000)"
fill="#000000" stroke="none">
<path d="M5670 8266 c-190 -183 -345 -338 -345 -344 0 -6 144 -160 320 -343
l320 -332 3 488 c1 340 6 492 13 502 9 10 54 13 196 13 l185 0 -167 175 c-92
96 -170 175 -174 175 -3 -1 -161 -151 -351 -334z"/>
<path d="M6035 8178 c-3 -7 -4 -217 -3 -467 l3 -454 330 351 c228 243 336 352
351 352 11 0 29 -10 40 -21 10 -12 72 -71 137 -131 l117 -110 0 246 0 246
-485 0 c-379 0 -487 -3 -490 -12z"/>
<path d="M5143 8163 l-183 -3 0 -88 c0 -104 22 -896 25 -900 3 -4 928 27 932
32 4 3 -222 239 -544 567 -73 74 -133 142 -133 150 0 8 55 67 122 131 l123
118 -80 -2 c-44 -2 -162 -4 -262 -5z"/>
<path d="M6558 7722 c-86 -92 -229 -243 -317 -337 -88 -93 -161 -172 -161
-175 0 -3 91 -2 202 1 112 4 334 10 494 14 l291 8 6 -24 c4 -13 7 -97 7 -186
0 -90 4 -163 8 -163 8 0 123 120 295 306 l47 51 -327 308 c-181 170 -342 321
-358 337 l-31 28 -156 -168z"/>
<path d="M4735 7308 l-169 -181 86 -81 c48 -45 207 -193 353 -331 146 -137
270 -251 274 -253 9 -3 645 667 639 673 -2 2 -221 -3 -487 -12 -467 -15 -485
-15 -498 3 -9 13 -13 60 -14 168 -1 83 -4 161 -7 174 -6 20 -26 2 -177 -160z"/>
<path d="M6423 7157 c-189 -5 -343 -13 -343 -17 0 -8 266 -285 537 -561 79
-80 143 -149 143 -155 0 -5 -53 -61 -117 -126 -64 -65 -115 -119 -113 -121 6
-4 503 12 508 17 5 5 -18 924 -24 954 -5 26 5 26 -591 9z"/>
<path d="M5904 7028 c-265 -288 -611 -648 -622 -648 -7 0 -61 46 -120 103 -59
56 -122 115 -140 131 l-32 30 0 -242 0 -242 490 0 490 0 0 465 c0 256 -2 465
-4 465 -2 0 -30 -28 -62 -62z"/>
<path d="M6028 6600 l-3 -495 -193 -3 c-107 -1 -192 -6 -190 -11 2 -5 78 -86
170 -181 l167 -172 168 163 c92 90 250 244 351 342 l183 178 -198 205 c-109
113 -255 265 -325 337 l-127 132 -3 -495z"/>
<path d="M3647 5122 c-107 -38 -162 -117 -177 -255 -6 -45 -10 -83 -10 -84 0
-1 -21 -3 -47 -5 l-48 -3 -3 -52 -3 -53 50 0 51 0 0 -320 0 -320 70 0 70 0 0
320 0 320 90 0 90 0 0 55 0 55 -91 0 -92 0 5 68 c10 131 51 177 160 176 l66
-1 11 40 c12 50 10 54 -37 67 -52 14 -100 12 -155 -8z"/>
<path d="M3900 4575 l0 -545 70 0 70 0 0 545 0 545 -70 0 -70 0 0 -545z"/>
<path d="M8410 4905 c0 -118 -3 -215 -8 -215 -4 0 -12 8 -18 18 -6 9 -35 31
-65 47 -47 26 -64 30 -134 30 -67 0 -89 -4 -137 -28 -143 -70 -220 -239 -197
-431 21 -171 136 -295 289 -313 77 -9 176 26 231 82 24 25 47 45 52 45 4 0 7
-25 7 -55 l0 -55 60 0 60 0 0 545 0 545 -70 0 -70 0 0 -215z m-91 -258 c69
-46 85 -86 90 -215 4 -144 -8 -192 -65 -248 -65 -66 -139 -80 -224 -43 -101
43 -153 171 -129 317 16 105 62 172 139 207 51 23 140 14 189 -18z"/>
<path d="M6096 5065 c-227 -58 -371 -241 -383 -490 -9 -179 36 -315 137 -416
71 -71 154 -114 266 -136 75 -14 101 -15 188 -5 99 11 159 24 183 40 18 11 -9
108 -28 104 -8 -2 -41 -11 -73 -19 -41 -10 -91 -14 -155 -11 -82 3 -106 8
-163 35 -36 17 -84 50 -107 73 -146 150 -148 452 -4 611 97 107 270 146 446
100 l67 -17 15 50 c8 27 12 53 8 57 -39 34 -294 50 -397 24z"/>
<path d="M4473 4775 c-164 -51 -253 -188 -253 -391 0 -118 28 -192 99 -265 95
-96 218 -126 385 -94 121 22 130 27 121 73 -4 21 -10 40 -14 45 -4 4 -39 0
-77 -9 -91 -21 -204 -15 -261 14 -71 37 -123 119 -123 196 l0 26 254 0 c214 0
255 2 266 15 27 32 -7 198 -56 276 -66 106 -212 155 -341 114z m150 -99 c21
-8 48 -22 59 -33 30 -26 58 -92 58 -135 l0 -38 -195 0 c-217 0 -206 -5 -179
75 39 112 150 169 257 131z"/>
<path d="M6815 4783 c-46 -10 -122 -36 -142 -49 -20 -12 -21 -17 -11 -46 16
-50 23 -53 75 -31 157 67 299 15 305 -112 l3 -50 -94 -7 c-160 -13 -271 -62
-322 -145 -20 -31 -24 -51 -24 -115 0 -68 3 -81 30 -120 77 -111 247 -126 369
-33 26 19 48 35 51 35 3 0 8 -18 11 -40 l7 -40 58 0 58 0 -6 263 c-6 315 -13
349 -81 418 -34 34 -62 51 -101 63 -51 15 -140 19 -186 9z m233 -471 c-3 -78
-6 -93 -30 -124 -35 -46 -89 -71 -155 -72 -65 -1 -102 24 -121 80 -10 30 -11
48 -2 76 24 82 108 124 253 127 l59 1 -4 -88z"/>
<path d="M7675 4778 c-49 -18 -84 -47 -120 -101 l-34 -50 -3 74 -3 74 -57 3
-58 3 0 -376 0 -375 70 0 70 0 0 213 c1 229 7 278 45 335 32 48 74 73 139 81
l51 6 0 60 0 60 -35 2 c-19 1 -48 -3 -65 -9z"/>
<path d="M4967 4773 c-3 -5 51 -88 119 -187 l124 -178 -57 -82 c-31 -44 -87
-124 -123 -176 -37 -52 -70 -101 -74 -107 -5 -10 10 -13 67 -13 l75 0 82 133
c104 166 104 166 121 136 6 -13 48 -79 92 -146 l79 -123 74 0 c41 0 74 3 74 6
0 3 -56 89 -125 190 -77 112 -123 189 -119 197 4 6 59 85 121 174 62 88 113
166 113 172 0 7 -25 11 -65 11 -65 0 -65 0 -96 -42 -17 -24 -58 -87 -91 -140
-34 -54 -64 -98 -67 -98 -4 0 -15 15 -26 33 -38 65 -150 232 -160 239 -13 10
-133 10 -138 1z"/>
</g>
</svg>
